<?xml version="1.0" standalone="no"?>
<!DOCTYPE svg PUBLIC "-//W3C//DTD SVG 20010904//EN"
 "http://www.w3.org/TR/2001/REC-SVG-20010904/DTD/svg10.dtd">
<svg version="1.0" xmlns="http://www.w3.org/2000/svg"
 width="1280.000000pt" height="1280.000000pt" viewBox="0 0 1280.000000 1280.000000"
 preserveAspectRatio="xMidYMid meet">
<metadata>
Created by potrace 1.15, written by Peter Selinger 2001-2017
</metadata>
<g transform="translate(0.000000,1280.000000) scale(0.100000,-0.100000)"
fill="#000000" stroke="none">
<path d="M5945 11714 c-1493 -135 -2831 -861 -3750 -2034 -583 -744 -965
-1662 -1085 -2605 -34 -267 -43 -459 -37 -778 10 -580 90 -1044 272 -1592 330
-991 955 -1872 1785 -2517 675 -525 1483 -884 2330 -1037 599 -108 1281 -108
1880 0 1658 299 3072 1356 3826 2860 377 753 563 1542 564 2390 0 264 -10 425
-41 670 -147 1171 -682 2263 -1518 3100 -815 814 -1875 1344 -3016 1508 -354
51 -870 66 -1210 35z"/>
</g>
</svg>
